<svg width="64" height="64" viewBox="0 0 64 64" fill="none" xmlns="http://www.w3.org/2000/svg">
<path d="M49.0513 44.9707C52.3286 44.9707 54.9854 42.314 54.9854 39.0366C54.9854 35.7593 52.3286 33.1025 49.0513 33.1025C45.774 33.1025 43.1172 35.7593 43.1172 39.0366C43.1172 42.314 45.774 44.9707 49.0513 44.9707Z" stroke="#25B6BF" stroke-width="2" stroke-miterlimit="10"/>
<path d="M58.0026 55.1107C58.0026 55.4058 57.9921 55.7009 57.9605 55.9961H40.1476C40.116 55.7009 40.1055 55.4058 40.1055 55.1107C40.1055 50.1674 44.1107 46.1621 49.054 46.1621C53.9974 46.1621 58.0026 50.1674 58.0026 55.1107Z" stroke="#25B6BF" stroke-width="2" stroke-miterlimit="10"/>
<path d="M14.4185 44.9707C17.6958 44.9707 20.3526 42.314 20.3526 39.0366C20.3526 35.7593 17.6958 33.1025 14.4185 33.1025C11.1412 33.1025 8.48438 35.7593 8.48438 39.0366C8.48438 42.314 11.1412 44.9707 14.4185 44.9707Z" stroke="#25B6BF" stroke-width="2" stroke-miterlimit="10"/>
<path d="M23.3659 55.1107C23.3659 55.4058 23.3554 55.7009 23.3238 55.9961H5.51091C5.47929 55.7009 5.46875 55.4058 5.46875 55.1107C5.46875 50.1674 9.474 46.1621 14.4173 46.1621C19.3607 46.1621 23.3659 50.1674 23.3659 55.1107Z" stroke="#25B6BF" stroke-width="2" stroke-miterlimit="10"/>
<path d="M31.6585 42.0191C35.8148 42.0191 39.1841 38.6498 39.1841 34.4934C39.1841 30.3371 35.8148 26.9678 31.6585 26.9678C27.5022 26.9678 24.1328 30.3371 24.1328 34.4934C24.1328 38.6498 27.5022 42.0191 31.6585 42.0191Z" stroke="#25B6BF" stroke-width="2" stroke-miterlimit="10"/>
<path d="M43.0133 54.8674C43.0133 55.2468 42.9922 55.6157 42.9606 55.9846H20.373C20.3414 55.6157 20.3203 55.2468 20.3203 54.8674C20.3203 48.596 25.4007 43.5156 31.6615 43.5156C37.9329 43.5262 43.0133 48.6065 43.0133 54.8674Z" fill="white" stroke="#25B6BF" stroke-width="2" stroke-miterlimit="10"/>
<path d="M32.094 9.51338L33.2007 12.9284C33.2639 13.1181 33.4326 13.2446 33.6328 13.2446H37.227C37.6697 13.2446 37.8489 13.8138 37.4905 14.0667L34.5814 16.1853C34.4233 16.3012 34.3601 16.5015 34.4128 16.6912L35.5195 20.1062C35.6565 20.5278 35.1717 20.8757 34.8239 20.6122L31.9148 18.4936C31.7567 18.3776 31.5353 18.3776 31.3772 18.4936L28.4682 20.6122C28.1098 20.8757 27.6355 20.5278 27.7725 20.1062L28.8792 16.6912C28.9425 16.5015 28.8687 16.3012 28.7106 16.1853L25.8015 14.0667C25.4431 13.8032 25.6329 13.2446 26.065 13.2446H29.6592C29.8595 13.2446 30.0281 13.1181 30.0913 12.9284L31.1981 9.51338C31.3667 9.10231 31.9569 9.10231 32.094 9.51338Z" stroke="#FFB800" stroke-width="2" stroke-miterlimit="10"/>
<path d="M49.4846 17.1335L50.5913 20.5485C50.6546 20.7382 50.8232 20.8647 51.0235 20.8647H54.6176C55.0603 20.8647 55.2395 21.4339 54.8812 21.6868L51.9721 23.8054C51.814 23.9213 51.7507 24.1216 51.8034 24.3113L52.9101 27.7263C53.0472 28.1479 52.5623 28.4958 52.2145 28.2323L49.3054 26.1137C49.1473 25.9978 48.926 25.9978 48.7679 26.1137L45.8588 28.2323C45.5004 28.4958 45.0261 28.1479 45.1631 27.7263L46.2699 24.3113C46.3331 24.1216 46.2593 23.9213 46.1012 23.8054L43.1921 21.6868C42.8338 21.4233 43.0235 20.8647 43.4556 20.8647H47.0498C47.2501 20.8647 47.4187 20.7382 47.482 20.5485L48.5887 17.1335C48.7573 16.7224 49.3581 16.7224 49.4846 17.1335Z" stroke="#FFB800" stroke-width="2" stroke-miterlimit="10"/>
<path d="M14.8479 17.1335L15.9546 20.5485C16.0178 20.7382 16.1865 20.8647 16.3867 20.8647H19.9809C20.4236 20.8647 20.6028 21.4339 20.2444 21.6868L17.3353 23.8054C17.1772 23.9213 17.114 24.1216 17.1667 24.3113L18.2734 27.7263C18.4104 28.1479 17.9256 28.4958 17.5778 28.2323L14.6687 26.1137C14.5106 25.9978 14.2892 25.9978 14.1311 26.1137L11.2221 28.2323C10.8637 28.4958 10.3894 28.1479 10.5264 27.7263L11.6331 24.3113C11.6964 24.1216 11.6226 23.9213 11.4645 23.8054L8.55541 21.6868C8.19704 21.4233 8.38676 20.8647 8.81891 20.8647H12.4131C12.6134 20.8647 12.782 20.7382 12.8452 20.5485L13.952 17.1335C14.1206 16.7224 14.7109 16.7224 14.8479 17.1335Z" stroke="#FFB800" stroke-width="2" stroke-miterlimit="10"/>
</svg>
