<svg width="64" height="64" viewBox="0 0 64 64" fill="none" xmlns="http://www.w3.org/2000/svg">
<path d="M33.3269 55.6C32.4149 55.6 31.503 55.6 30.5911 55.6C30.4543 55.5772 30.3289 55.543 30.1921 55.5202C28.9268 55.3264 27.6273 55.2124 26.3848 54.916C14.4271 52.0548 6.72123 40.0287 9.05805 27.9342C10.027 22.9072 12.3752 18.6211 16.1597 15.1786C21.5515 10.2655 27.9351 8.30488 35.1621 9.21681C39.7674 9.79817 43.8255 11.6904 47.3022 14.7568C51.3945 18.3703 53.9593 22.873 54.9055 28.2762C55.0537 29.1539 55.1448 30.0431 55.2588 30.9208C55.2588 31.8327 55.2588 32.7447 55.2588 33.6566C55.236 33.8162 55.2018 33.9758 55.179 34.1354C55.0651 34.9789 55.0081 35.8224 54.8485 36.6546C53.9707 41.294 51.8505 45.3065 48.5333 48.6579C45.0566 52.1688 40.8731 54.3917 35.9829 55.2352C35.0937 55.3948 34.2046 55.486 33.3269 55.6ZM31.959 11.7588C20.651 11.7588 11.4291 20.9807 11.4291 32.2887C11.4291 43.5967 20.651 52.8186 31.959 52.8186C43.2669 52.8186 52.4888 43.5967 52.4888 32.2887C52.4888 20.9807 43.2669 11.7702 31.959 11.7588Z" fill="#25B6BF"/>
<path d="M31.9821 33.3027C35.9604 33.3027 39.9273 33.3027 43.9056 33.3027C45.1709 33.3027 45.6611 33.8157 45.6155 35.0924C45.4217 40.9402 41.6486 45.9558 36.0744 47.7569C30.6598 49.5123 24.4929 47.5289 21.0731 42.9692C19.2949 40.5868 18.3487 37.9194 18.2917 34.9442C18.2689 33.8727 18.7933 33.3027 19.8762 33.3027C23.9115 33.3027 27.9468 33.3027 31.9821 33.3027ZM21.1757 36.1183C21.7001 41.077 26.1571 45.6252 32.0049 45.6024C37.8869 45.5796 42.2414 40.9516 42.7315 36.1183C35.55 36.1183 28.3686 36.1183 21.1757 36.1183Z" fill="#25B6BF"/>
<path d="M25.7904 28.5039C25.4371 28.5381 25.0951 28.2303 24.7417 27.9339C23.7044 27.079 22.3821 26.9764 21.2194 27.6604C20.9686 27.8086 20.7634 28.0023 20.5354 28.1847C19.9199 28.6635 19.1105 28.5951 18.609 28.0365C18.1302 27.4894 18.1644 26.6914 18.6888 26.1443C20.8204 23.91 24.7417 23.8986 26.8848 26.1329C27.3065 26.5774 27.4319 27.1588 27.1925 27.6832C26.9532 28.1961 26.5314 28.4811 25.7904 28.5039Z" fill="#25B6BF"/>
<path d="M41.1007 24.4463C42.6396 24.4463 43.9733 24.982 45.1018 26.0194C45.7288 26.6007 45.8086 27.4215 45.307 28.0028C44.7827 28.607 43.9619 28.6526 43.278 28.1054C42.0241 27.0909 40.7816 26.9313 39.5505 27.6495C39.2997 27.7976 39.0945 27.9914 38.8665 28.1738C38.251 28.6526 37.4302 28.5842 36.9401 28.0256C36.4385 27.4557 36.4727 26.6463 37.0426 26.0992C38.1712 25.0162 39.5277 24.4577 41.1007 24.4463Z" fill="#25B6BF"/>
</svg>
