<svg width="64" height="64" viewBox="0 0 64 64" fill="none" xmlns="http://www.w3.org/2000/svg">
<path d="M4.87305 28.5691C5.17515 28.3611 5.44848 28.0422 5.79374 27.9451C7.69266 27.4321 9.60596 26.9468 11.5049 26.4892C11.9077 26.3921 12.0803 26.198 12.2098 25.8374C12.555 24.9361 12.9578 24.0486 13.3606 23.1612C13.4901 22.87 13.4901 22.6758 13.3319 22.3985C12.3105 20.7484 11.3179 19.0844 10.3109 17.4343C9.89367 16.7548 9.92245 16.5191 10.4835 15.9783C12.1235 14.3975 13.7634 12.8167 15.389 11.2498C15.9357 10.7228 16.1946 10.6951 16.8564 11.0695C18.5827 12.0402 20.2946 12.997 22.0065 13.9815C22.323 14.1618 22.5531 14.1618 22.884 14.0092C23.7903 13.6071 24.7254 13.2327 25.6605 12.8999C26.0057 12.7751 26.164 12.6087 26.2647 12.2759C26.7538 10.4178 27.2717 8.55965 27.7752 6.71539C27.9766 6.00819 28.178 5.8418 28.9404 5.8418C31.2565 5.8418 33.5726 5.8418 35.8887 5.8418C36.6512 5.8418 36.867 5.99433 37.0684 6.70153C37.5719 8.55965 38.0898 10.4039 38.5789 12.262C38.6652 12.5948 38.8234 12.7751 39.1687 12.8999C40.1038 13.2327 41.0388 13.6071 41.9451 13.9953C42.276 14.134 42.5062 14.1618 42.8371 13.9676C44.5346 12.997 46.2465 12.0402 47.944 11.0834C48.6633 10.6812 48.8935 10.709 49.4977 11.2775C51.1232 12.8444 52.7488 14.4114 54.3744 15.9783C54.9355 16.5191 54.9643 16.7548 54.5471 17.4343C53.5401 19.0844 52.5474 20.7484 51.5261 22.3985C51.3534 22.662 51.3678 22.87 51.4973 23.1612C51.9145 24.0764 52.3173 25.0054 52.6913 25.9345C52.8064 26.2257 52.9502 26.3782 53.2667 26.4476C55.1225 26.9052 56.9782 27.3766 58.834 27.8342C59.8842 28.0977 59.9993 28.2363 59.9993 29.3041C59.9993 31.4257 59.9993 33.5611 59.9993 35.6827C59.9993 36.5008 59.841 36.695 59.0067 36.903C57.1509 37.3744 55.2951 37.8598 53.4394 38.2896C52.979 38.4006 52.7776 38.6224 52.6338 39.0384C52.3173 39.8981 51.9432 40.744 51.5404 41.5621C51.3678 41.9088 51.3822 42.1445 51.5836 42.4635C52.5906 44.0997 53.5832 45.736 54.5758 47.3861C54.9642 48.024 54.9355 48.2874 54.3888 48.8005C52.7488 50.3813 51.1232 51.9621 49.4833 53.5429C48.9222 54.0837 48.6489 54.1114 47.9728 53.7231C46.304 52.7802 44.6209 51.8511 42.9665 50.8943C42.5925 50.6725 42.3048 50.6586 41.8876 50.8528C41.0388 51.2549 40.1469 51.5877 39.255 51.8927C38.881 52.0175 38.6796 52.1839 38.5789 52.5722C38.1041 54.4165 37.6006 56.2607 37.0684 58.0772C36.9677 58.41 36.6368 58.6735 36.421 58.9647C33.7597 58.9647 31.1127 58.9647 28.4513 58.9647C28.2355 58.6735 27.9046 58.41 27.8039 58.0772C27.2573 56.233 26.7682 54.3749 26.279 52.5167C26.1927 52.1701 26.0057 52.0175 25.6748 51.8927C24.7398 51.5599 23.8047 51.1856 22.8984 50.7834C22.5963 50.6448 22.3661 50.617 22.064 50.7973C20.3665 51.7679 18.669 52.7247 16.9571 53.6815C16.1946 54.1114 15.9645 54.0837 15.3603 53.5013C13.7491 51.9482 12.1379 50.3952 10.5266 48.8421C9.93683 48.2597 9.89368 48.0378 10.3253 47.3445C11.3323 45.6944 12.3249 44.0304 13.3463 42.3803C13.5189 42.1029 13.5045 41.9088 13.375 41.6176C12.9578 40.7163 12.5694 39.8149 12.2098 38.8997C12.0803 38.5669 11.9077 38.4006 11.5624 38.3174C9.63473 37.8459 7.70704 37.3744 5.79374 36.8614C5.44848 36.7643 5.17515 36.4454 4.87305 36.2374C4.87305 33.6859 4.87305 31.1206 4.87305 28.5691ZM16.396 12.7196C14.9287 14.134 13.4901 15.5345 12.0228 16.9489C12.0947 17.0737 12.181 17.2263 12.2673 17.3649C13.2312 18.9596 14.195 20.5543 15.1732 22.1489C15.4178 22.5372 15.4178 22.8838 15.2308 23.3137C14.6554 24.5756 14.1231 25.8513 13.5908 27.1409C13.4326 27.5153 13.2312 27.7649 12.8284 27.8619C12.1666 28.0145 11.5049 28.1947 10.8575 28.3611C9.44771 28.7217 8.02353 29.0822 6.62811 29.4289C6.62811 31.4534 6.62811 33.4224 6.62811 35.3915C8.61335 35.8907 10.5698 36.3899 12.5407 36.8752C13.001 36.9862 13.4038 37.1387 13.5908 37.6379C14.1231 38.9552 14.6841 40.2587 15.2596 41.5621C15.4322 41.9365 15.4322 42.2555 15.2164 42.5883C14.8568 43.1707 14.5115 43.7531 14.1519 44.3355C13.4326 45.528 12.7133 46.7205 12.0228 47.8576C13.5045 49.2858 14.9431 50.6864 16.396 52.1007C16.5255 52.0314 16.6838 51.9482 16.842 51.865C18.5395 50.9221 20.237 49.993 21.9202 49.0501C22.3374 48.8144 22.6826 48.8698 23.1286 49.064C24.2938 49.5909 25.4734 50.0762 26.6962 50.4922C27.3292 50.7141 27.7176 51.0191 27.8183 51.657C27.8471 51.8095 27.8903 51.9621 27.9334 52.1146C28.4081 53.8479 28.8829 55.5813 29.3576 57.3146C31.4435 57.3146 33.4863 57.3146 35.5435 57.3146C36.0614 55.401 36.5936 53.4874 37.0828 51.5877C37.2266 51.033 37.5287 50.7279 38.1185 50.5338C39.3125 50.1317 40.4922 49.6741 41.643 49.1333C42.2472 48.856 42.7076 48.8421 43.283 49.1749C45.0093 50.1872 46.7788 51.1578 48.4619 52.1007C49.9436 50.6864 51.3966 49.2997 52.8783 47.8992C52.792 47.7466 52.6913 47.5802 52.605 47.4138C51.6411 45.833 50.6917 44.2523 49.7278 42.6715C49.4833 42.2832 49.4833 41.9365 49.6847 41.5067C50.2601 40.2587 50.7924 38.9968 51.3103 37.735C51.4685 37.319 51.6987 37.0694 52.1446 36.9584C53.2092 36.7088 54.2593 36.4315 55.3239 36.1542C56.3165 35.9046 57.3235 35.655 58.2874 35.4054C58.2874 33.3808 58.2874 31.4118 58.2874 29.4427C56.2302 28.9158 54.2018 28.4027 52.1734 27.9035C51.7275 27.7926 51.4829 27.5569 51.3103 27.1409C50.7924 25.8513 50.2457 24.5756 49.6703 23.3137C49.4833 22.8977 49.4833 22.5649 49.7134 22.1905C50.2457 21.3308 50.7636 20.4572 51.2959 19.5975C51.8425 18.71 52.3748 17.8087 52.8639 16.9905C51.3678 15.5623 49.9292 14.1756 48.4619 12.7612C46.7212 13.7458 44.923 14.7442 43.1392 15.7703C42.6932 16.0337 42.3048 16.0199 41.8301 15.798C40.895 15.3543 39.9743 14.8273 38.9817 14.6055C37.6582 14.3143 37.1115 13.621 36.867 12.3868C36.5361 10.7506 36.0182 9.15591 35.5723 7.53352C33.4863 7.53352 31.4435 7.53352 29.3864 7.53352C28.8685 9.44711 28.3362 11.3468 27.8471 13.2604C27.6889 13.8567 27.358 14.134 26.7682 14.342C25.6029 14.7441 24.4521 15.174 23.3444 15.7009C22.697 16.006 22.2223 16.0199 21.6037 15.6593C19.863 14.6332 18.1079 13.6764 16.396 12.7196Z" fill="#25B6BF"/>
<path d="M32.5687 19.1289C40.2651 19.1289 46.4941 25.147 46.4797 32.5656C46.4653 39.9843 40.2219 45.9885 32.5256 45.9608C24.8436 45.933 18.6433 39.9565 18.6289 32.5518C18.6433 25.1331 24.8723 19.1289 32.5687 19.1289ZM20.3696 32.4963C20.3408 38.9859 25.7355 44.2413 32.4968 44.2968C39.2293 44.3522 44.7391 39.1107 44.7678 32.5934C44.7966 26.0899 39.3588 20.8068 32.5975 20.7929C25.8506 20.779 20.3984 26.0067 20.3696 32.4963Z" fill="#25B6BF"/>
<path d="M34.1687 38.4451C34.9743 39.1523 35.7943 39.8595 36.5711 40.5944C36.7725 40.7886 36.9451 41.1352 36.9307 41.3987C36.9163 41.6344 36.643 41.9811 36.4272 42.0366C36.1539 42.1059 35.7079 42.0366 35.5065 41.8563C34.6002 41.0243 33.7227 40.1507 32.8739 39.2633C32.5862 38.9721 32.3417 38.8195 31.8957 38.7918C29.3782 38.6947 27.767 37.2803 26.76 35.1865C25.7098 32.9955 26.127 30.8601 27.2635 28.8217C28.7165 26.2425 30.9463 24.4399 33.6076 23.0948C33.996 22.9007 34.3845 22.9284 34.6866 23.2612C34.9743 23.5663 35.0318 23.9545 34.7441 24.2596C33.9097 25.1748 33.9097 26.2564 34.2406 27.2964C34.7441 28.8356 35.3771 30.347 35.9957 31.8446C36.5135 33.0926 36.8013 34.3545 36.4704 35.6857C36.1971 36.8643 35.4202 37.6825 34.1687 38.4451ZM33.1904 36.8921C34.0967 36.5731 34.6866 36.0185 34.8736 35.0894C35.0462 34.1881 34.8016 33.3422 34.4564 32.5241C33.9241 31.2622 33.3343 30.0142 32.8739 28.7246C32.5575 27.8094 32.4424 26.8388 32.2266 25.8542C30.3277 27.2686 28.7308 28.9465 28.0979 31.29C27.5368 33.3977 28.4 35.5747 30.1982 36.6286C30.4859 36.795 30.8168 36.9059 31.1189 37.0446C30.0975 34.9507 29.8817 32.8014 29.9968 30.5966C30.0256 30.0281 30.3852 29.6676 30.8887 29.6814C31.3922 29.6953 31.7231 30.0697 31.7231 30.6382C31.7231 31.2484 31.6943 31.8446 31.7231 32.4548C31.8094 34.0494 32.2266 35.547 33.1904 36.8921Z" fill="#FFB800"/>
</svg>
