<svg width="64" height="64" viewBox="0 0 64 64" fill="none" xmlns="http://www.w3.org/2000/svg">
<path d="M22.4055 59.5333C22.1922 59.2489 21.922 58.9787 21.7514 58.6659C20.6848 56.7461 19.6467 54.8121 18.566 52.8497C17.2292 53.319 15.921 53.7882 14.6127 54.2575C13.8021 54.5562 12.9773 54.8406 12.1667 55.1392C11.7543 55.2956 11.3419 55.4094 10.9722 55.0397C10.6167 54.6841 10.7163 54.286 10.8727 53.8593C12.8209 48.74 14.7691 43.6348 16.7173 38.5154C16.8737 38.103 16.8453 37.904 16.4613 37.6053C14.7833 36.3113 14.0865 34.5763 14.4989 32.4859C14.826 30.8506 14.442 29.5565 13.1764 28.4331C10.8727 26.3996 10.8727 22.8018 13.1764 20.754C14.442 19.6306 14.8544 18.3365 14.4989 16.7012C13.8732 13.7291 16.0489 10.7997 19.0921 10.5295C20.7133 10.3873 21.8225 9.61936 22.5193 8.14043C23.8844 5.18256 27.2689 4.14447 30.0988 5.76561C31.4355 6.53352 32.7438 6.51929 34.0805 5.76561C36.9673 4.13025 40.2807 5.19679 41.6885 8.18309C42.3569 9.60514 43.4234 10.3588 44.9734 10.5153C48.2015 10.8565 50.2777 13.6295 49.652 16.8007C49.3391 18.3792 49.7373 19.6306 50.9603 20.7114C53.2924 22.7733 53.3351 26.3569 51.0029 28.4189C49.7373 29.5423 49.3391 30.8221 49.6662 32.4717C50.0786 34.5763 49.3676 36.3113 47.6611 37.6195C47.3198 37.8755 47.2772 38.0604 47.4194 38.4443C49.3534 43.5068 51.2873 48.5693 53.2071 53.6318C53.264 53.7598 53.3635 53.902 53.3493 54.03C53.3209 54.3571 53.3493 54.7979 53.1645 54.9828C52.9654 55.1676 52.4961 55.2387 52.2117 55.1534C50.5479 54.5988 48.8983 53.9873 47.2487 53.4043C46.7226 53.2194 46.1822 53.0203 45.6134 52.8213C45.5138 52.9919 45.4143 53.1626 45.3147 53.319C44.3477 55.0965 43.3807 56.8741 42.4137 58.6374C42.2431 58.9503 41.9871 59.2205 41.7596 59.5191C41.5463 59.5191 41.333 59.5191 41.1197 59.5191C40.9064 59.2063 40.6362 58.9218 40.494 58.5663C38.6595 53.8025 36.8535 49.0386 35.0475 44.2747C34.9764 44.1041 34.9053 43.8481 34.7631 43.7912C34.0948 43.4642 33.4264 43.1229 32.7154 42.9238C31.7626 42.6678 30.8809 42.9949 30.0135 43.4215C29.4304 43.7201 29.1176 44.1041 28.89 44.7013C27.1551 49.323 25.3918 53.9447 23.6285 58.5521C23.5005 58.8934 23.2161 59.192 23.0028 59.5049C22.8321 59.5333 22.6188 59.5333 22.4055 59.5333ZM48.1162 15.7626C48.0735 15.4924 48.0735 15.2365 48.0166 14.9947C47.6469 13.402 46.5093 12.4492 44.6179 12.2075C42.5417 11.9373 41.077 10.8708 40.1954 8.97944C39.1857 6.83214 36.9957 6.13534 34.8911 7.27298C34.4218 7.52895 33.9383 7.74225 33.4264 7.88446C31.9332 8.28263 30.5254 7.984 29.1887 7.23032C27.2974 6.16378 25.0079 6.84636 24.1262 8.76613C23.145 10.9134 21.5238 12.0368 19.2059 12.2644C17.1439 12.4777 15.7645 14.4543 16.2054 16.4879C16.6746 18.6636 16.0916 20.4696 14.4278 21.9485C12.764 23.4275 12.7498 25.7881 14.4278 27.267C16.0916 28.7459 16.6604 30.5519 16.2196 32.7277C16.12 33.2112 16.12 33.7658 16.2338 34.2493C16.5751 35.842 17.7412 36.7805 19.6467 37.0223C21.7229 37.2925 23.1734 38.3732 24.0551 40.2645C25.0363 42.3692 27.2547 43.0944 29.274 41.971C31.208 40.8902 33.0993 40.9045 35.0475 41.971C35.5453 42.2412 36.1425 42.4261 36.6971 42.4687C38.2471 42.5967 39.5412 41.7435 40.238 40.2361C41.0059 38.5723 42.2573 37.52 44.0349 37.1076C44.4615 37.0081 44.9166 37.0081 45.3432 36.9085C47.2772 36.4961 48.4717 34.6332 48.0593 32.685C47.6042 30.5377 48.1588 28.7317 49.8226 27.267C50.0075 27.1106 50.1924 26.9257 50.3346 26.7266C51.5007 25.2335 51.3016 23.2142 49.8226 21.9059C48.2015 20.4696 47.6185 18.7063 48.0308 16.6016C48.0451 16.3314 48.0735 16.0328 48.1162 15.7626ZM18.5091 38.615C16.7031 43.3646 14.8971 48.1143 13.0484 52.9777C13.347 52.8781 13.5319 52.8355 13.7026 52.7644C15.2668 52.1956 16.8311 51.6409 18.4095 51.0721C19.2059 50.7877 19.4761 50.8873 19.8743 51.6267C20.6848 53.1199 21.4954 54.613 22.3202 56.1062C22.3913 56.2484 22.4908 56.3906 22.6188 56.6039C24.2115 52.4231 25.7615 48.3276 27.3258 44.2179C24.9367 44.033 23.3156 42.8953 22.3486 40.7623C22.1069 40.2361 21.6518 39.7811 21.211 39.3971C20.4573 38.7572 19.4903 38.7003 18.5091 38.615ZM36.882 44.2179C38.4605 48.3418 40.0105 52.4373 41.6032 56.6181C41.7312 56.3906 41.8307 56.2484 41.9018 56.092C42.7124 54.5988 43.523 53.1057 44.3477 51.6125C44.7317 50.9015 45.0161 50.8019 45.7698 51.0721C47.3767 51.6409 48.9694 52.224 50.5763 52.7928C50.7327 52.8497 50.8892 52.8924 51.1594 52.9635C49.3107 48.1001 47.5047 43.3504 45.6987 38.6008C45.4427 38.6292 45.2436 38.6576 45.0588 38.6719C43.4661 38.7998 42.3426 39.582 41.6885 41.0609C41.5321 41.4164 41.333 41.7577 41.0912 42.0705C40.0532 43.4499 38.6311 44.1041 36.882 44.2179Z" fill="#25B6BF"/>
<path d="M19.3184 24.6079C19.3184 17.5403 25.0492 11.8237 32.1168 11.8379C39.156 11.8379 44.8868 17.583 44.8726 24.6079C44.8584 31.6898 39.1133 37.4064 32.0173 37.3922C25.035 37.3637 19.3184 31.6329 19.3184 24.6079ZM21.0248 24.6648C21.0106 30.7085 26.002 35.6715 32.1026 35.6857C38.1605 35.6999 43.1661 30.7227 43.1804 24.6648C43.1946 18.5927 38.2601 13.5586 32.2732 13.5444C26.002 13.5159 21.039 18.4362 21.0248 24.6648Z" fill="#25B6BF"/>
<path d="M39.5974 22.8015C39.512 22.9295 39.384 23.1997 39.185 23.3988C38.346 24.2378 37.4785 25.0484 36.6395 25.9016C36.4831 26.058 36.3977 26.3709 36.4262 26.5842C36.5968 27.7787 36.8101 28.959 37.0234 30.1535C37.0946 30.5517 37.0377 30.893 36.6964 31.149C36.3409 31.4049 35.9996 31.3196 35.6441 31.1205C34.5917 30.5659 33.5394 30.0256 32.5013 29.4567C32.2169 29.3003 32.0036 29.3003 31.7192 29.4567C30.6811 30.0256 29.6146 30.5659 28.5765 31.1205C28.2067 31.3196 27.8512 31.4049 27.4815 31.1348C27.1402 30.8788 27.1117 30.5233 27.1828 30.1251C27.3962 28.959 27.5668 27.7787 27.7943 26.6126C27.8512 26.2856 27.7801 26.0865 27.5526 25.8732C26.6994 25.0626 25.8746 24.2378 25.0356 23.4272C24.7227 23.1286 24.5094 22.7873 24.6658 22.3465C24.808 21.9056 25.192 21.8061 25.5902 21.7492C26.7705 21.5786 27.9365 21.4221 29.1168 21.2231C29.3159 21.1946 29.5577 21.0098 29.6572 20.8249C30.1976 19.7868 30.7095 18.7345 31.2215 17.6822C31.4063 17.284 31.6623 16.9854 32.1316 16.9854C32.5724 16.9996 32.8142 17.284 32.999 17.6537C33.511 18.706 34.0371 19.7441 34.5491 20.7964C34.6771 21.0666 34.8335 21.1804 35.1463 21.2231C36.3266 21.3653 37.4927 21.5644 38.673 21.735C39.2845 21.8488 39.5974 22.1332 39.5974 22.8015ZM32.1031 19.7299C31.7334 20.4694 31.3779 21.0809 31.1219 21.735C30.8091 22.5456 30.2687 22.8726 29.4297 22.9153C28.7471 22.958 28.0645 23.1144 27.4388 23.1997C28.0503 23.8539 28.6333 24.4938 29.2448 25.1195C29.5435 25.4181 29.6714 25.7452 29.5861 26.1718C29.4155 27.0393 29.2875 27.9209 29.1311 28.8737C29.899 28.4755 30.61 28.1485 31.2784 27.7361C31.8756 27.3663 32.3876 27.409 32.9564 27.7503C33.6247 28.1484 34.3215 28.4755 35.0752 28.8595C34.9188 27.9494 34.8193 27.1104 34.6344 26.2856C34.5206 25.7452 34.6913 25.3755 35.061 25.0057C35.6441 24.4227 36.1987 23.797 36.7675 23.1855C35.9569 23.0575 35.1037 22.9153 34.2504 22.8158C33.7669 22.7589 33.4825 22.5313 33.2835 22.1047C32.9137 21.3653 32.5298 20.6116 32.1031 19.7299Z" fill="#FFB800"/>
</svg>
